# xmcd CD database file
#
# Track frame offsets:
#	150
#	22644
#	40810
#	67127
#	80302
#	110825
#	131585
#	148540
#	168802
#	192085
#
# Disc length: 2798 seconds
#
# Revision: 0
# Processed by: cddbd v1.4b42PL1 Copyright (c) Steve Scherf et al.
# Submitted via: CD2WAV32(EN) R3.18
#
DISCID=7e0aec0a
DTITLE=Anhinga&Eric Casillas&Anhinga - Flavors of the Drum
DYEAR=1900
DGENRE=
TTITLE0=World Pow-Wow
TTITLE1=Journey to the Yucatan
TTITLE2=Rainbow Man
TTITLE3=Spirit Bird
TTITLE4=Spirits of the Canyon
TTITLE5=Warrior's Chant
TTITLE6=Danzantes
TTITLE7=Legends of the Canyon Dwellers
TTITLE8=Harvest Chant
TTITLE9=Pow-Wow Closing
EXTD=
EXTT0=
EXTT1=
EXTT2=
EXTT3=
EXTT4=
EXTT5=
EXTT6=
EXTT7=
EXTT8=
EXTT9=
PLAYORDER=
